<svg width="850" height="850" viewBox="0 0 850 850" fill="none" xmlns="http://www.w3.org/2000/svg">
<path opacity="0.94" d="M665 1H185C83.3796 1 1 83.3796 1 185V665C1 766.62 83.3796 849 185 849H665C766.62 849 849 766.62 849 665V185C849 83.3796 766.62 1 665 1Z" fill="#11151B"/>
<mask id="mask0_1_354" style="mask-type:luminance" maskUnits="userSpaceOnUse" x="1" y="1" width="848" height="848">
<path d="M665 1H185C83.38 1 1 83.38 1 185V665C1 766.62 83.38 849 185 849H665C766.62 849 849 766.62 849 665V185C849 83.38 766.62 1 665 1Z" fill="white"/>
</mask>
<g mask="url(#mask0_1_354)">
<path d="M1 1H40V40H1V1ZM79 1H118V40H79V1ZM157 1H196V40H157V1ZM235 1H274V40H235V1ZM313 1H352V40H313V1ZM391 1H430V40H391V1ZM469 1H508V40H469V1ZM547 1H586V40H547V1ZM625 1H664V40H625V1ZM703 1H742V40H703V1ZM781 1H820V40H781V1ZM40 40H79V79H40V40ZM118 40H157V79H118V40ZM196 40H235V79H196V40ZM274 40H313V79H274V40ZM352 40H391V79H352V40ZM430 40H469V79H430V40ZM508 40H547V79H508V40ZM586 40H625V79H586V40ZM664 40H703V79H664V40ZM742 40H781V79H742V40ZM820 40H849V79H820V40ZM1 79H40V118H1V79ZM79 79H118V118H79V79ZM157 79H196V118H157V79ZM235 79H274V118H235V79ZM313 79H352V118H313V79ZM391 79H430V118H391V79ZM469 79H508V118H469V79ZM547 79H586V118H547V79ZM625 79H664V118H625V79ZM703 79H742V118H703V79ZM781 79H820V118H781V79ZM40 118H79V157H40V118ZM118 118H157V157H118V118ZM196 118H235V157H196V118ZM274 118H313V157H274V118ZM352 118H391V157H352V118ZM430 118H469V157H430V118ZM508 118H547V157H508V118ZM586 118H625V157H586V118ZM664 118H703V157H664V118ZM742 118H781V157H742V118ZM820 118H849V157H820V118ZM1 157H40V196H1V157ZM79 157H118V196H79V157ZM157 157H196V196H157V157ZM235 157H274V196H235V157ZM313 157H352V196H313V157ZM391 157H430V196H391V157ZM469 157H508V196H469V157ZM547 157H586V196H547V157ZM625 157H664V196H625V157ZM703 157H742V196H703V157ZM781 157H820V196H781V157ZM40 196H79V235H40V196ZM118 196H157V235H118V196ZM196 196H235V235H196V196ZM274 196H313V235H274V196ZM352 196H391V235H352V196ZM430 196H469V235H430V196ZM508 196H547V235H508V196ZM586 196H625V235H586V196ZM664 196H703V235H664V196ZM742 196H781V235H742V196ZM820 196H849V235H820V196ZM1 235H40V274H1V235ZM79 235H118V274H79V235ZM157 235H196V274H157V235ZM235 235H274V274H235V235ZM313 235H352V274H313V235ZM391 235H430V274H391V235ZM469 235H508V274H469V235ZM547 235H586V274H547V235ZM625 235H664V274H625V235ZM703 235H742V274H703V235ZM781 235H820V274H781V235ZM40 274H79V313H40V274ZM118 274H157V313H118V274ZM196 274H235V313H196V274ZM274 274H313V313H274V274ZM352 274H391V313H352V274ZM430 274H469V313H430V274ZM508 274H547V313H508V274ZM586 274H625V313H586V274ZM664 274H703V313H664V274ZM742 274H781V313H742V274ZM820 274H849V313H820V274ZM1 313H40V352H1V313ZM79 313H118V352H79V313ZM157 313H196V352H157V313ZM235 313H274V352H235V313ZM313 313H352V352H313V313ZM391 313H430V352H391V313ZM469 313H508V352H469V313ZM547 313H586V352H547V313ZM625 313H664V352H625V313ZM703 313H742V352H703V313ZM781 313H820V352H781V313ZM40 352H79V391H40V352ZM118 352H157V391H118V352ZM196 352H235V391H196V352ZM274 352H313V391H274V352ZM352 352H391V391H352V352ZM430 352H469V391H430V352ZM508 352H547V391H508V352ZM586 352H625V391H586V352ZM664 352H703V391H664V352ZM742 352H781V391H742V352ZM820 352H849V391H820V352ZM1 391H40V430H1V391ZM79 391H118V430H79V391ZM157 391H196V430H157V391ZM235 391H274V430H235V391ZM313 391H352V430H313V391ZM391 391H430V430H391V391ZM469 391H508V430H469V391ZM547 391H586V430H547V391ZM625 391H664V430H625V391ZM703 391H742V430H703V391ZM781 391H820V430H781V391ZM40 430H79V469H40V430ZM118 430H157V469H118V430ZM196 430H235V469H196V430ZM274 430H313V469H274V430ZM352 430H391V469H352V430ZM430 430H469V469H430V430ZM508 430H547V469H508V430ZM586 430H625V469H586V430ZM664 430H703V469H664V430ZM742 430H781V469H742V430ZM820 430H849V469H820V430ZM1 469H40V508H1V469ZM79 469H118V508H79V469ZM157 469H196V508H157V469ZM235 469H274V508H235V469ZM313 469H352V508H313V469ZM391 469H430V508H391V469ZM469 469H508V508H469V469ZM547 469H586V508H547V469ZM625 469H664V508H625V469ZM703 469H742V508H703V469ZM781 469H820V508H781V469ZM40 508H79V547H40V508ZM118 508H157V547H118V508ZM196 508H235V547H196V508ZM274 508H313V547H274V508ZM352 508H391V547H352V508ZM430 508H469V547H430V508ZM508 508H547V547H508V508ZM586 508H625V547H586V508ZM664 508H703V547H664V508ZM742 508H781V547H742V508ZM820 508H849V547H820V508ZM1 547H40V586H1V547ZM79 547H118V586H79V547ZM157 547H196V586H157V547ZM235 547H274V586H235V547ZM313 547H352V586H313V547ZM391 547H430V586H391V547ZM469 547H508V586H469V547ZM547 547H586V586H547V547ZM625 547H664V586H625V547ZM703 547H742V586H703V547ZM781 547H820V586H781V547ZM40 586H79V625H40V586ZM118 586H157V625H118V586ZM196 586H235V625H196V586ZM274 586H313V625H274V586ZM352 586H391V625H352V586ZM430 586H469V625H430V586ZM508 586H547V625H508V586ZM586 586H625V625H586V586ZM664 586H703V625H664V586ZM742 586H781V625H742V586ZM820 586H849V625H820V586ZM1 625H40V664H1V625ZM79 625H118V664H79V625ZM157 625H196V664H157V625ZM235 625H274V664H235V625ZM313 625H352V664H313V625ZM391 625H430V664H391V625ZM469 625H508V664H469V625ZM547 625H586V664H547V625ZM625 625H664V664H625V625ZM703 625H742V664H703V625ZM781 625H820V664H781V625ZM40 664H79V703H40V664ZM118 664H157V703H118V664ZM196 664H235V703H196V664ZM274 664H313V703H274V664ZM352 664H391V703H352V664ZM430 664H469V703H430V664ZM508 664H547V703H508V664ZM586 664H625V703H586V664ZM664 664H703V703H664V664ZM742 664H781V703H742V664ZM820 664H849V703H820V664ZM1 703H40V742H1V703ZM79 703H118V742H79V703ZM157 703H196V742H157V703ZM235 703H274V742H235V703ZM313 703H352V742H313V703ZM391 703H430V742H391V703ZM469 703H508V742H469V703ZM547 703H586V742H547V703ZM625 703H664V742H625V703ZM703 703H742V742H703V703ZM781 703H820V742H781V703ZM40 742H79V781H40V742ZM118 742H157V781H118V742ZM196 742H235V781H196V742ZM274 742H313V781H274V742ZM352 742H391V781H352V742ZM430 742H469V781H430V742ZM508 742H547V781H508V742ZM586 742H625V781H586V742ZM664 742H703V781H664V742ZM742 742H781V781H742V742ZM820 742H849V781H820V742ZM1 781H40V820H1V781ZM79 781H118V820H79V781ZM157 781H196V820H157V781ZM235 781H274V820H235V781ZM313 781H352V820H313V781ZM391 781H430V820H391V781ZM469 781H508V820H469V781ZM547 781H586V820H547V781ZM625 781H664V820H625V781ZM703 781H742V820H703V781ZM781 781H820V820H781V781ZM40 820H79V849H40V820ZM118 820H157V849H118V820ZM196 820H235V849H196V820ZM274 820H313V849H274V820ZM352 820H391V849H352V820ZM430 820H469V849H430V820ZM508 820H547V849H508V820ZM586 820H625V849H586V820ZM664 820H703V849H664V820ZM742 820H781V849H742V820ZM820 820H849V849H820V820Z" fill="#2B323D" fill-opacity="0.72"/>
</g>
<path d="M665 1H185C83.38 1 1 83.38 1 185V665C1 766.62 83.38 849 185 849H665C766.62 849 849 766.62 849 665V185C849 83.38 766.62 1 665 1Z" stroke="white" stroke-opacity="0.09" stroke-width="2"/>
</svg>
