<svg width="466" height="498" viewBox="0 0 466 498" fill="none" xmlns="http://www.w3.org/2000/svg">
<path d="M23 43C34.0457 43 43 34.0457 43 23C43 11.9543 34.0457 3 23 3C11.9543 3 3 11.9543 3 23C3 34.0457 11.9543 43 23 43Z" fill="black" stroke="#FF0004" stroke-width="6"/>
<path d="M443 43C454.046 43 463 34.0457 463 23C463 11.9543 454.046 3 443 3C431.954 3 423 11.9543 423 23C423 34.0457 431.954 43 443 43Z" fill="black" stroke="#FF0004" stroke-width="6"/>
<path d="M23 495C34.0457 495 43 486.046 43 475C43 463.954 34.0457 455 23 455C11.9543 455 3 463.954 3 475C3 486.046 11.9543 495 23 495Z" fill="black" stroke="#FF0004" stroke-width="6"/>
<path d="M443 495C454.046 495 463 486.046 463 475C463 463.954 454.046 455 443 455C431.954 455 423 463.954 423 475C423 486.046 431.954 495 443 495Z" fill="black" stroke="#FF0004" stroke-width="6"/>
</svg>
