<svg width="129" height="128" viewBox="0 0 129 128" fill="none" xmlns="http://www.w3.org/2000/svg">
<g opacity="0.95">
<path d="M5.5 23.5H123.5" stroke="#FF0000" stroke-width="11" stroke-linecap="round"/>
<path d="M123.5 5.5V41.5" stroke="#FF0000" stroke-width="11" stroke-linecap="round"/>
<path d="M5.5 5.5V41.5" stroke="#FF0000" stroke-width="11" stroke-linecap="round"/>
<path d="M5.5 23.5H123.5" stroke="black" stroke-width="5" stroke-linecap="round"/>
<path d="M5.5 5.5V41.5" stroke="black" stroke-width="5" stroke-linecap="round"/>
<path d="M123.5 5.5V41.5" stroke="black" stroke-width="5" stroke-linecap="round"/>
<path d="M42.376 82.7285V45.2344H50.0752V50.165H50.2598C51.7891 46.7373 54.874 44.6543 58.8818 44.6543C66.0537 44.6543 70.4307 50.1387 70.4307 59.3408V59.3672C70.4307 68.543 66.0537 74.0801 58.9873 74.0801C54.9531 74.0801 51.7627 72.0234 50.2334 68.6748H50.0752V82.7285H42.376ZM56.3506 67.6992C60.1738 67.6992 62.5996 64.5088 62.5996 59.3672V59.3408C62.5996 54.1729 60.1738 51.0352 56.3506 51.0352C52.6064 51.0352 50.0488 54.252 50.0488 59.3672V59.3936C50.0488 64.4824 52.6064 67.6992 56.3506 67.6992ZM85.6709 74.0801C79.3955 74.0801 76.4424 71.6543 76.4424 65.5898V51.0352H72.5137V45.2344H76.4424V38.3262H84.2207V45.2344H89.3887V51.0352H84.2207V64.7461C84.2207 67.3828 85.4072 68.2793 87.7275 68.2793C88.4131 68.2793 88.9141 68.2002 89.3887 68.1475V73.79C88.5186 73.9219 87.2793 74.0801 85.6709 74.0801Z" fill="white"/>
<path d="M24.9844 120.5V104.797H29.2617V107.536H29.3496C29.8184 105.603 31.0928 104.475 32.9238 104.475C33.3926 104.475 33.832 104.548 34.1543 104.636V108.4C33.8027 108.254 33.2168 108.166 32.6016 108.166C30.4922 108.166 29.2617 109.426 29.2617 111.711V120.5H24.9844ZM40.2041 120.749C37.0547 120.749 34.9307 118.771 34.9307 116.003V115.974C34.9307 113.117 37.1426 111.447 41.0391 111.198L44.9209 110.964V109.997C44.9209 108.605 44.0127 107.741 42.3428 107.741C40.7461 107.741 39.7793 108.488 39.5742 109.499L39.5449 109.631H35.6338L35.6484 109.455C35.8828 106.555 38.373 104.475 42.5186 104.475C46.5762 104.475 49.1982 106.569 49.1982 109.733V120.5H44.9209V118.156H44.833C43.9395 119.768 42.2695 120.749 40.2041 120.749ZM39.1641 115.783C39.1641 116.94 40.1162 117.629 41.5957 117.629C43.5146 117.629 44.9209 116.398 44.9209 114.758V113.63L41.6836 113.835C40.0283 113.938 39.1641 114.641 39.1641 115.754V115.783ZM57.7822 120.822C53.8271 120.822 51.3955 117.746 51.3955 112.648V112.634C51.3955 107.521 53.8271 104.475 57.7822 104.475C60.0088 104.475 61.7666 105.617 62.6162 107.521H62.7041V99.3623H66.9814V120.5H62.7041V117.819H62.6162C61.7812 119.68 60.0527 120.822 57.7822 120.822ZM59.2178 117.277C61.2979 117.277 62.7188 115.49 62.7188 112.648V112.634C62.7188 109.807 61.2832 108.02 59.2178 108.02C57.0938 108.02 55.7461 109.763 55.7461 112.634V112.648C55.7461 115.505 57.0791 117.277 59.2178 117.277ZM72.0645 102.775C70.7754 102.775 69.7793 101.765 69.7793 100.549C69.7793 99.333 70.7754 98.3223 72.0645 98.3223C73.3535 98.3223 74.3496 99.333 74.3496 100.549C74.3496 101.765 73.3535 102.775 72.0645 102.775ZM69.9258 120.5V104.797H74.2031V120.5H69.9258ZM82.4209 120.822C78.9639 120.822 77.001 118.61 77.001 114.934V104.797H81.2783V114.04C81.2783 116.091 82.2451 117.277 84.1641 117.277C86.083 117.277 87.2988 115.871 87.2988 113.82V104.797H91.5762V120.5H87.2988V117.907H87.2109C86.4053 119.709 84.7939 120.822 82.4209 120.822ZM100.819 120.822C96.4688 120.822 94.0518 118.815 93.7148 115.842L93.7002 115.71H97.875L97.9043 115.842C98.1826 117.072 99.1055 117.79 100.819 117.79C102.431 117.79 103.412 117.16 103.412 116.149V116.135C103.412 115.3 102.885 114.816 101.347 114.479L98.6807 113.923C95.6338 113.278 94.0957 111.755 94.0957 109.411V109.396C94.0957 106.408 96.6738 104.475 100.673 104.475C104.848 104.475 107.177 106.687 107.279 109.44V109.587H103.339L103.324 109.47C103.178 108.342 102.255 107.492 100.673 107.492C99.1934 107.492 98.2705 108.151 98.2705 109.162V109.177C98.2705 109.982 98.8125 110.51 100.395 110.847L103.061 111.418C106.342 112.106 107.689 113.396 107.689 115.71V115.725C107.689 118.801 104.862 120.822 100.819 120.822Z" fill="#8CEEFF"/>
</g>
</svg>
